<svg width="152" height="27" viewBox="0 0 152 27" fill="none" xmlns="http://www.w3.org/2000/svg">
<path d="M1.32102 23V5.54545H13.4915V8.97159H5.53977V12.5511H12.8693V15.9858H5.53977V19.5739H13.4915V23H1.32102ZM19.679 9.90909L21.8352 14.2216L24.0682 9.90909H28.2699L24.6136 16.4545L28.4062 23H24.2386L21.8352 18.6534L19.4915 23H15.2642L19.0653 16.4545L15.4517 9.90909H19.679ZM35.8146 23.2472C34.4396 23.2472 33.2578 22.9659 32.2692 22.4034C31.2862 21.8352 30.5277 21.0455 29.9936 20.0341C29.4652 19.017 29.201 17.8381 29.201 16.4972C29.201 15.1506 29.4652 13.9716 29.9936 12.9602C30.5277 11.9432 31.2862 11.1534 32.2692 10.5909C33.2578 10.0227 34.4396 9.73864 35.8146 9.73864C37.1896 9.73864 38.3686 10.0227 39.3516 10.5909C40.3402 11.1534 41.0987 11.9432 41.6271 12.9602C42.1612 13.9716 42.4283 15.1506 42.4283 16.4972C42.4283 17.8381 42.1612 19.017 41.6271 20.0341C41.0987 21.0455 40.3402 21.8352 39.3516 22.4034C38.3686 22.9659 37.1896 23.2472 35.8146 23.2472ZM35.8402 20.1023C36.3402 20.1023 36.7635 19.9489 37.1101 19.642C37.4567 19.3352 37.7209 18.9091 37.9027 18.3636C38.0902 17.8182 38.1839 17.1875 38.1839 16.4716C38.1839 15.7443 38.0902 15.108 37.9027 14.5625C37.7209 14.017 37.4567 13.5909 37.1101 13.2841C36.7635 12.9773 36.3402 12.8239 35.8402 12.8239C35.3232 12.8239 34.8857 12.9773 34.5277 13.2841C34.1754 13.5909 33.9055 14.017 33.718 14.5625C33.5362 15.108 33.4453 15.7443 33.4453 16.4716C33.4453 17.1875 33.5362 17.8182 33.718 18.3636C33.9055 18.9091 34.1754 19.3352 34.5277 19.642C34.8857 19.9489 35.3232 20.1023 35.8402 20.1023ZM53.9979 10.7784C53.9411 10.1534 53.6882 9.66761 53.2393 9.32102C52.7962 8.96875 52.1626 8.79261 51.3388 8.79261C50.7933 8.79261 50.3388 8.86364 49.9751 9.00568C49.6115 9.14773 49.3388 9.34375 49.157 9.59375C48.9751 9.83807 48.8814 10.1193 48.8757 10.4375C48.8643 10.6989 48.9155 10.929 49.0291 11.1278C49.1484 11.3267 49.3189 11.5028 49.5405 11.6562C49.7678 11.804 50.0405 11.9347 50.3587 12.0483C50.6768 12.1619 51.0348 12.2614 51.4325 12.3466L52.9325 12.6875C53.7962 12.875 54.5575 13.125 55.2166 13.4375C55.8814 13.75 56.4382 14.1222 56.8871 14.554C57.3416 14.9858 57.6854 15.483 57.9183 16.0455C58.1513 16.608 58.2706 17.2386 58.2763 17.9375C58.2706 19.0398 57.9922 19.9858 57.4411 20.7756C56.8899 21.5653 56.0973 22.1705 55.0632 22.5909C54.0348 23.0114 52.7933 23.2216 51.3388 23.2216C49.8786 23.2216 48.6058 23.0028 47.5206 22.5653C46.4354 22.1278 45.5916 21.4631 44.9893 20.571C44.3871 19.679 44.0774 18.5511 44.0604 17.1875H48.1001C48.1342 17.75 48.2848 18.2188 48.5518 18.5938C48.8189 18.9688 49.1854 19.2528 49.6513 19.446C50.1229 19.6392 50.6683 19.7358 51.2876 19.7358C51.8558 19.7358 52.3388 19.6591 52.7365 19.5057C53.1399 19.3523 53.4496 19.1392 53.6655 18.8665C53.8814 18.5937 53.9922 18.2812 53.9979 17.929C53.9922 17.5994 53.8899 17.3182 53.6911 17.0852C53.4922 16.8466 53.1854 16.642 52.7706 16.4716C52.3615 16.2955 51.8388 16.1335 51.2024 15.9858L49.3786 15.5597C47.8672 15.2131 46.6768 14.6534 45.8075 13.8807C44.9382 13.1023 44.5064 12.0511 44.5121 10.7273C44.5064 9.64773 44.7962 8.7017 45.3814 7.8892C45.9666 7.0767 46.7763 6.44318 47.8104 5.98864C48.8445 5.53409 50.0234 5.30682 51.3473 5.30682C52.6996 5.30682 53.8729 5.53693 54.8672 5.99716C55.8672 6.4517 56.6428 7.09091 57.1939 7.91477C57.745 8.73864 58.0263 9.69318 58.0376 10.7784H53.9979ZM66.5178 23.2472C65.1428 23.2472 63.9609 22.9659 62.9723 22.4034C61.9893 21.8352 61.2308 21.0455 60.6967 20.0341C60.1683 19.017 59.9041 17.8381 59.9041 16.4972C59.9041 15.1506 60.1683 13.9716 60.6967 12.9602C61.2308 11.9432 61.9893 11.1534 62.9723 10.5909C63.9609 10.0227 65.1428 9.73864 66.5178 9.73864C67.8928 9.73864 69.0717 10.0227 70.0547 10.5909C71.0433 11.1534 71.8018 11.9432 72.3303 12.9602C72.8643 13.9716 73.1314 15.1506 73.1314 16.4972C73.1314 17.8381 72.8643 19.017 72.3303 20.0341C71.8018 21.0455 71.0433 21.8352 70.0547 22.4034C69.0717 22.9659 67.8928 23.2472 66.5178 23.2472ZM66.5433 20.1023C67.0433 20.1023 67.4666 19.9489 67.8132 19.642C68.1598 19.3352 68.424 18.9091 68.6058 18.3636C68.7933 17.8182 68.8871 17.1875 68.8871 16.4716C68.8871 15.7443 68.7933 15.108 68.6058 14.5625C68.424 14.017 68.1598 13.5909 67.8132 13.2841C67.4666 12.9773 67.0433 12.8239 66.5433 12.8239C66.0263 12.8239 65.5888 12.9773 65.2308 13.2841C64.8786 13.5909 64.6087 14.017 64.4212 14.5625C64.2393 15.108 64.1484 15.7443 64.1484 16.4716C64.1484 17.1875 64.2393 17.8182 64.4212 18.3636C64.6087 18.9091 64.8786 19.3352 65.2308 19.642C65.5888 19.9489 66.0263 20.1023 66.5433 20.1023ZM82.7067 9.90909V12.9773H74.2862V9.90909H82.7067ZM76.0419 23V9.24432C76.0419 8.23295 76.2322 7.39489 76.6129 6.73011C76.9936 6.05966 77.522 5.55966 78.1982 5.23011C78.8743 4.89489 79.6555 4.72727 80.5419 4.72727C81.1214 4.72727 81.6669 4.77273 82.1783 4.86364C82.6953 4.94886 83.0788 5.02557 83.3288 5.09375L82.6641 8.14489C82.5107 8.09375 82.3232 8.05114 82.1016 8.01704C81.8857 7.98295 81.6811 7.96591 81.4879 7.96591C80.9993 7.96591 80.6641 8.07386 80.4822 8.28977C80.3004 8.50568 80.2095 8.80114 80.2095 9.17614V23H76.0419ZM92.1009 9.90909V12.9773H83.8423V9.90909H92.1009ZM85.5724 6.77273H89.7401V18.8835C89.7401 19.1392 89.7798 19.3466 89.8594 19.5057C89.9446 19.6591 90.0668 19.7699 90.2259 19.8381C90.3849 19.9006 90.5753 19.9318 90.7969 19.9318C90.956 19.9318 91.1236 19.9176 91.2997 19.8892C91.4815 19.8551 91.6179 19.8267 91.7088 19.804L92.3395 22.8125C92.1406 22.8693 91.8594 22.9403 91.4957 23.0256C91.1378 23.1108 90.7088 23.1648 90.2088 23.1875C89.2315 23.233 88.3935 23.1193 87.6946 22.8466C87.0014 22.5682 86.4702 22.1364 86.1009 21.5511C85.7372 20.9659 85.5611 20.2301 85.5724 19.3438V6.77273ZM96.6733 23L93.2642 9.90909H97.4489L99.2131 18.2955H99.3239L101.216 9.90909H105.298L107.241 18.2358H107.352L109.065 9.90909H113.25L109.832 23H105.375L103.33 15.3722H103.185L101.139 23H96.6733ZM118.613 23.2216C117.778 23.2216 117.036 23.0824 116.388 22.804C115.746 22.5199 115.238 22.0937 114.863 21.5256C114.494 20.9517 114.309 20.233 114.309 19.3693C114.309 18.642 114.437 18.0284 114.692 17.5284C114.948 17.0284 115.3 16.6222 115.749 16.3097C116.198 15.9972 116.715 15.7614 117.3 15.6023C117.886 15.4375 118.511 15.3267 119.175 15.2699C119.92 15.2017 120.519 15.1307 120.974 15.0568C121.428 14.9773 121.758 14.8665 121.962 14.7244C122.173 14.5767 122.278 14.3693 122.278 14.1023V14.0597C122.278 13.6222 122.127 13.2841 121.826 13.0455C121.525 12.8068 121.119 12.6875 120.607 12.6875C120.056 12.6875 119.613 12.8068 119.278 13.0455C118.942 13.2841 118.729 13.6136 118.638 14.0341L114.795 13.8977C114.908 13.1023 115.201 12.392 115.673 11.767C116.15 11.1364 116.803 10.642 117.633 10.2841C118.468 9.92045 119.471 9.73864 120.641 9.73864C121.477 9.73864 122.246 9.83807 122.951 10.0369C123.656 10.2301 124.269 10.5142 124.792 10.8892C125.315 11.2585 125.718 11.7131 126.002 12.2528C126.292 12.7926 126.437 13.4091 126.437 14.1023V23H122.516V21.1761H122.414C122.181 21.6193 121.883 21.9943 121.519 22.3011C121.161 22.608 120.738 22.8381 120.249 22.9915C119.766 23.1449 119.221 23.2216 118.613 23.2216ZM119.9 20.4943C120.349 20.4943 120.752 20.4034 121.11 20.2216C121.474 20.0398 121.763 19.7898 121.979 19.4716C122.195 19.1477 122.303 18.7727 122.303 18.3466V17.1023C122.184 17.1648 122.039 17.2216 121.869 17.2727C121.704 17.3239 121.522 17.3722 121.323 17.4176C121.124 17.4631 120.92 17.5028 120.71 17.5369C120.499 17.571 120.298 17.6023 120.104 17.6307C119.712 17.6932 119.377 17.7898 119.099 17.9205C118.826 18.0511 118.616 18.2216 118.468 18.4318C118.326 18.6364 118.255 18.8807 118.255 19.1648C118.255 19.5966 118.408 19.9261 118.715 20.1534C119.028 20.3807 119.423 20.4943 119.9 20.4943ZM128.985 23V9.90909H133.033V12.2955H133.17C133.408 11.4318 133.798 10.7898 134.337 10.3693C134.877 9.94318 135.505 9.73011 136.221 9.73011C136.414 9.73011 136.613 9.74432 136.817 9.77273C137.022 9.79545 137.212 9.83239 137.388 9.88352V13.5057C137.19 13.4375 136.928 13.3835 136.604 13.3438C136.286 13.304 136.002 13.2841 135.752 13.2841C135.258 13.2841 134.812 13.3949 134.414 13.6165C134.022 13.8324 133.712 14.1364 133.485 14.5284C133.263 14.9148 133.153 15.3693 133.153 15.892V23H128.985ZM144.526 23.2472C143.157 23.2472 141.975 22.9773 140.981 22.4375C139.992 21.892 139.231 21.1165 138.697 20.1108C138.168 19.0994 137.904 17.8977 137.904 16.5057C137.904 15.1534 138.171 13.9716 138.705 12.9602C139.239 11.9432 139.992 11.1534 140.964 10.5909C141.935 10.0227 143.08 9.73864 144.398 9.73864C145.33 9.73864 146.183 9.88352 146.955 10.1733C147.728 10.4631 148.396 10.892 148.958 11.4602C149.521 12.0284 149.958 12.7301 150.271 13.5653C150.583 14.3949 150.739 15.3466 150.739 16.4205V17.4602H139.362V15.0398H146.862C146.856 14.5966 146.751 14.2017 146.546 13.8551C146.342 13.5085 146.06 13.2386 145.702 13.0455C145.35 12.8466 144.944 12.7472 144.484 12.7472C144.018 12.7472 143.6 12.8523 143.231 13.0625C142.862 13.267 142.569 13.5483 142.353 13.9062C142.137 14.2585 142.023 14.6591 142.012 15.108V17.571C142.012 18.1051 142.117 18.5739 142.327 18.9773C142.538 19.375 142.836 19.6847 143.222 19.9062C143.609 20.1278 144.069 20.2386 144.603 20.2386C144.972 20.2386 145.308 20.1875 145.609 20.0852C145.91 19.983 146.168 19.8324 146.384 19.6335C146.6 19.4347 146.762 19.1903 146.87 18.9006L150.697 19.0114C150.538 19.8693 150.188 20.6165 149.648 21.2528C149.114 21.8835 148.413 22.375 147.543 22.7273C146.674 23.0739 145.668 23.2472 144.526 23.2472Z" fill="#2451C7"/>
</svg>
